<?xml version="1.0" encoding="UTF-8" standalone="no"?>
<!DOCTYPE svg PUBLIC "-//W3C//DTD SVG 1.0//EN" "http://www.w3.org/TR/2001/PR-SVG-20010719/DTD/svg10.dtd">
<svg width="21cm" height="12cm" viewBox="27 61 401 240" xmlns="http://www.w3.org/2000/svg" xmlns:xlink="http://www.w3.org/1999/xlink">
  <g>
    <path style="fill: #b7b79d" d="M 60.0635 97.6469 L 100.032,97.6469 L 100.032,105.034 L 60.0635,105.034 L 60.0635,97.6469z"/>
    <path style="fill: none; fill-opacity:0; stroke-width: 0.02; stroke: #494936" d="M 60.0635 97.6469 L 100.032,97.6469 L 100.032,105.034 L 60.0635,105.034 L 60.0635,97.6469"/>
    <path style="fill: #c9c9b6" d="M 60.0635 97.6469 L 64.3015,93.6293 L 104.27,93.6293 L 100.032,97.6469 L 60.0635,97.6469z"/>
    <path style="fill: none; fill-opacity:0; stroke-width: 0.02; stroke: #494936" d="M 60.0635 97.6469 L 64.3015,93.6293 L 104.27,93.6293 L 100.032,97.6469 L 60.0635,97.6469"/>
    <path style="fill: none; fill-opacity:0; stroke-width: 2.12; stroke: #000000" d="M 97.7965 101.01 L 88.2058,101.01"/>
    <path style="fill: #7a7a5a" d="M 100.032 105.034 L 104.27,100.783 L 104.27,93.6293 L 100.032,97.6469 L 100.032,105.034z"/>
    <path style="fill: none; fill-opacity:0; stroke-width: 0.02; stroke: #494936" d="M 100.032 105.034 L 104.27,100.783 L 104.27,93.6293 L 100.032,97.6469 L 100.032,105.034"/>
    <path style="fill: #c9c9b6" d="M 60.2902 109.719 L 64.7486,104.133 L 95.5672,104.133 L 91.1088,109.719 L 60.2902,109.719z"/>
    <path style="fill: none; fill-opacity:0; stroke-width: 0.02; stroke: #494936" d="M 60.2902 109.719 L 64.7486,104.133 L 95.5672,104.133 L 91.1088,109.719 L 60.2902,109.719"/>
    <path style="fill: #7a7a5a" d="M 91.1088 110.833 L 95.5672,106.148 L 95.5672,104.133 L 91.1088,109.719 L 91.1088,110.833z"/>
    <path style="fill: none; fill-opacity:0; stroke-width: 0.02; stroke: #494936" d="M 91.1088 110.833 L 95.5672,106.148 L 95.5672,104.133 L 91.1088,109.719 L 91.1088,110.833"/>
    <path style="fill: #b7b79d" d="M 60.2902 109.719 L 91.1088,109.719 L 91.1088,110.833 L 60.2902,110.833 L 60.2902,109.719z"/>
    <path style="fill: none; fill-opacity:0; stroke-width: 0.02; stroke: #494936" d="M 60.2902 109.719 L 91.1088,109.719 L 91.1088,110.833 L 60.2902,110.833 L 60.2902,109.719"/>
    <path style="fill: #000000" d="M 66.0899 96.759 L 69.4463,93.6293 L 97.7965,93.6293 L 94.6793,96.759 L 66.0899,96.759z"/>
    <path style="fill: none; fill-opacity:0; stroke-width: 0.02; stroke: #000000" d="M 66.0899 96.759 L 69.4463,93.6293 L 97.7965,93.6293 L 94.6793,96.759 L 66.0899,96.759"/>
    <path style="fill: #c9c9b6" d="M 65.8632 73.7364 L 68.9992,70.8333 L 97.362,70.8333 L 94.2259,73.7364 L 65.8632,73.7364z"/>
    <path style="fill: none; fill-opacity:0; stroke-width: 0.02; stroke: #494936" d="M 65.8632 73.7364 L 68.9992,70.8333 L 97.362,70.8333 L 94.2259,73.7364 L 65.8632,73.7364"/>
    <path style="fill: #b7b79d" d="M 65.8632 73.7364 L 94.4526,73.7364 L 94.4526,96.3056 L 65.8632,96.3056 L 65.8632,73.7364z"/>
    <path style="fill: none; fill-opacity:0; stroke-width: 0.02; stroke: #494936" d="M 65.8632 73.7364 L 94.44,73.7364 L 94.44,96.2993 L 65.8632,96.2993 L 65.8632,73.7364"/>
    <path style="fill: #ffffff" d="M 68.3191 76.6331 L 91.9904,76.6331 L 91.9904,94.0701 L 68.3191,94.0701 L 68.3191,76.6331z"/>
    <path style="fill: none; fill-opacity:0; stroke-width: 0.02; stroke: #494936" d="M 68.3191 76.6331 L 91.9904,76.6331 L 91.9904,94.0638 L 68.3191,94.0638 L 68.3191,76.6331"/>
    <path style="fill: #7a7a5a" d="M 94.2259 96.0915 L 97.362,92.9618 L 97.362,70.8333 L 94.2259,73.7364 L 94.2259,96.0915z"/>
    <path style="fill: none; fill-opacity:0; stroke-width: 0.02; stroke: #494936" d="M 94.2259 96.0915 L 97.362,92.9618 L 97.362,70.8333 L 94.2259,73.7364 L 94.2259,96.0915"/>
  </g>
  <g>
    <rect style="fill: #ffffff" x="28.1667" y="165.5" width="96" height="40"/>
    <rect style="fill: none; fill-opacity:0; stroke-width: 2; stroke: #000000" x="28.1667" y="165.5" width="96" height="40"/>
    <text font-size="12.8" style="fill: #000000;text-anchor:middle;font-family:sans-serif;font-style:normal;font-weight:normal" x="76.1667" y="189.4">
      <tspan x="76.1667" y="189.4">nginx</tspan>
    </text>
  </g>
  <g>
    <rect style="fill: #ffffff" x="178.533" y="158.667" width="96.8" height="54"/>
    <rect style="fill: none; fill-opacity:0; stroke-width: 2; stroke: #000000" x="178.533" y="158.667" width="96.8" height="54"/>
    <text font-size="12.8" style="fill: #000000;text-anchor:middle;font-family:sans-serif;font-style:normal;font-weight:normal" x="226.933" y="181.567">
      <tspan x="226.933" y="181.567">uWSGI</tspan>
      <tspan x="226.933" y="197.567">(Django)</tspan>
    </text>
  </g>
  <g>
    <path style="fill: #ffffff" d="M 36.8333 260.167 C 52.5333,254.667 60.3833,252.833 76.0833,252.833 C 91.7833,252.833 99.6333,254.667 115.333,260.167 L 115.333,289.5 C 99.6333,295 91.7833,296.833 76.0833,296.833 C 60.3833,296.833 52.5333,295 36.8333,289.5 L 36.8333,260.167z"/>
    <path style="fill: none; fill-opacity:0; stroke-width: 2; stroke: #000000" d="M 36.8333 260.167 C 52.5333,254.667 60.3833,252.833 76.0833,252.833 C 91.7833,252.833 99.6333,254.667 115.333,260.167 L 115.333,289.5 C 99.6333,295 91.7833,296.833 76.0833,296.833 C 60.3833,296.833 52.5333,295 36.8333,289.5 L 36.8333,260.167"/>
    <path style="fill: none; fill-opacity:0; stroke-width: 2; stroke: #000000" d="M 36.8333 260.167 C 52.5333,265.667 60.3833,267.5 76.0833,267.5 C 91.7833,267.5 99.6333,265.667 115.333,260.167"/>
    <text font-size="12.8" style="fill: #000000;text-anchor:middle;font-family:sans-serif;font-style:normal;font-weight:normal" x="76.0833" y="282.5">
      <tspan x="76.0833" y="282.5">static</tspan>
    </text>
  </g>
  <g>
    <path style="fill: #ffffff" d="M 327.833 171.959 C 347.633,165.084 357.533,162.793 377.333,162.793 C 397.133,162.793 407.033,165.084 426.833,171.959 L 426.833,208.626 C 407.033,215.501 397.133,217.793 377.333,217.793 C 357.533,217.793 347.633,215.501 327.833,208.626 L 327.833,171.959z"/>
    <path style="fill: none; fill-opacity:0; stroke-width: 2; stroke: #000000" d="M 327.833 171.959 C 347.633,165.084 357.533,162.793 377.333,162.793 C 397.133,162.793 407.033,165.084 426.833,171.959 L 426.833,208.626 C 407.033,215.501 397.133,217.793 377.333,217.793 C 357.533,217.793 347.633,215.501 327.833,208.626 L 327.833,171.959"/>
    <path style="fill: none; fill-opacity:0; stroke-width: 2; stroke: #000000" d="M 327.833 171.959 C 347.633,178.834 357.533,181.126 377.333,181.126 C 397.133,181.126 407.033,178.834 426.833,171.959"/>
    <text font-size="12.8" style="fill: #000000;text-anchor:middle;font-family:sans-serif;font-style:normal;font-weight:normal" x="377.333" y="198.876">
      <tspan x="377.333" y="198.876">PostgreSQL</tspan>
    </text>
  </g>
  <g>
    <line style="fill: none; fill-opacity:0; stroke-width: 2; stroke: #000000" x1="75.7827" y1="120.569" x2="76.0835" y2="155.764"/>
    <polygon style="fill: #000000" points="75.7186,113.069 80.8039,123.026 75.7827,120.569 70.8042,123.112 "/>
    <polygon style="fill: none; fill-opacity:0; stroke-width: 2; stroke: #000000" points="75.7186,113.069 80.8039,123.026 75.7827,120.569 70.8042,123.112 "/>
    <polygon style="fill: #000000" points="76.1476,163.264 71.0623,153.307 76.0835,155.764 81.0619,153.222 "/>
    <polygon style="fill: none; fill-opacity:0; stroke-width: 2; stroke: #000000" points="76.1476,163.264 71.0623,153.307 76.0835,155.764 81.0619,153.222 "/>
  </g>
  <g>
    <line style="fill: none; fill-opacity:0; stroke-width: 2; stroke: #000000" x1="168.797" y1="185.637" x2="133.903" y2="185.53"/>
    <polygon style="fill: #000000" points="176.297,185.66 166.282,190.629 168.797,185.637 166.313,180.629 "/>
    <polygon style="fill: none; fill-opacity:0; stroke-width: 2; stroke: #000000" points="176.297,185.66 166.282,190.629 168.797,185.637 166.313,180.629 "/>
    <polygon style="fill: #000000" points="126.403,185.507 136.418,180.538 133.903,185.53 136.387,190.537 "/>
    <polygon style="fill: none; fill-opacity:0; stroke-width: 2; stroke: #000000" points="126.403,185.507 136.418,180.538 133.903,185.53 136.387,190.537 "/>
  </g>
  <g>
    <line style="fill: none; fill-opacity:0; stroke-width: 2; stroke: #000000" x1="76.0833" y1="252.833" x2="76.1495" y2="215.236"/>
    <polygon style="fill: #000000" points="76.1627,207.736 81.1451,217.745 76.1495,215.236 71.1451,217.727 "/>
    <polygon style="fill: none; fill-opacity:0; stroke-width: 2; stroke: #000000" points="76.1627,207.736 81.1451,217.745 76.1495,215.236 71.1451,217.727 "/>
  </g>
  <g>
    <line style="fill: none; fill-opacity:0; stroke-width: 2; stroke: #000000" x1="285.069" y1="185.675" x2="318.097" y2="185.701"/>
    <polygon style="fill: #000000" points="277.569,185.668 287.573,180.677 285.069,185.675 287.565,190.677 "/>
    <polygon style="fill: none; fill-opacity:0; stroke-width: 2; stroke: #000000" points="277.569,185.668 287.573,180.677 285.069,185.675 287.565,190.677 "/>
    <polygon style="fill: #000000" points="325.597,185.708 315.593,190.699 318.097,185.701 315.601,180.699 "/>
    <polygon style="fill: none; fill-opacity:0; stroke-width: 2; stroke: #000000" points="325.597,185.708 315.593,190.699 318.097,185.701 315.601,180.699 "/>
  </g>
  <text font-size="11.2889" style="fill: #000000;text-anchor:middle;font-family:sans-serif;font-style:normal;font-weight:normal" x="75.9331" y="142.092">
    <tspan x="75.9331" y="142.092"></tspan>
  </text>
  <text font-size="11.2889" style="fill: #000000;text-anchor:middle;font-family:sans-serif;font-style:normal;font-weight:normal" x="76.125" y="233.092">
    <tspan x="76.125" y="233.092"></tspan>
  </text>
  <text font-size="11.2889" style="fill: #000000;text-anchor:middle;font-family:sans-serif;font-style:normal;font-weight:normal" x="151.35" y="189.508">
    <tspan x="151.35" y="189.508"></tspan>
  </text>
  <text font-size="11.2889" style="fill: #000000;text-anchor:middle;font-family:sans-serif;font-style:normal;font-weight:normal" x="301.583" y="183.038">
    <tspan x="301.583" y="183.038"></tspan>
  </text>
  <g>
    <rect style="fill: #ffffff" x="178.172" y="245.85" width="96.8" height="54"/>
    <rect style="fill: none; fill-opacity:0; stroke-width: 2; stroke: #000000" x="178.172" y="245.85" width="96.8" height="54"/>
    <text font-size="12.8" style="fill: #000000;text-anchor:middle;font-family:sans-serif;font-style:normal;font-weight:normal" x="226.572" y="268.75">
      <tspan x="226.572" y="268.75">Postfix</tspan>
      <tspan x="226.572" y="284.75">(EMail)</tspan>
    </text>
  </g>
  <g>
    <rect style="fill: #ffffff" x="175.372" y="62.5167" width="102.733" height="54"/>
    <rect style="fill: none; fill-opacity:0; stroke-width: 2; stroke: #000000" x="175.372" y="62.5167" width="102.733" height="54"/>
    <text font-size="12.8" style="fill: #000000;text-anchor:middle;font-family:sans-serif;font-style:normal;font-weight:normal" x="226.738" y="85.4167">
      <tspan x="226.738" y="85.4167">Valkey</tspan>
      <tspan x="226.738" y="101.417">(Cache, IPC)</tspan>
    </text>
  </g>
  <g>
    <line style="fill: none; fill-opacity:0; stroke-width: 2; stroke: #000000" x1="226.678" y1="236.115" x2="226.933" y2="212.667"/>
    <polygon style="fill: #000000" points="226.596,243.614 221.705,233.56 226.678,236.115 231.705,233.669 "/>
    <polygon style="fill: none; fill-opacity:0; stroke-width: 2; stroke: #000000" points="226.596,243.614 221.705,233.56 226.678,236.115 231.705,233.669 "/>
  </g>
  <g>
    <line style="fill: none; fill-opacity:0; stroke-width: 2; stroke: #000000" x1="226.783" y1="126.253" x2="226.888" y2="148.931"/>
    <polygon style="fill: #000000" points="226.749,118.753 231.795,128.729 226.783,126.253 221.795,128.776 "/>
    <polygon style="fill: none; fill-opacity:0; stroke-width: 2; stroke: #000000" points="226.749,118.753 231.795,128.729 226.783,126.253 221.795,128.776 "/>
    <polygon style="fill: #000000" points="226.923,156.431 221.877,146.454 226.888,148.931 231.877,146.408 "/>
    <polygon style="fill: none; fill-opacity:0; stroke-width: 2; stroke: #000000" points="226.923,156.431 221.877,146.454 226.888,148.931 231.877,146.408 "/>
  </g>
</svg>
